<?xml version="1.0" encoding="UTF-8" standalone="no"?>
<!-- Created with Inkscape (http://www.inkscape.org/) -->

<svg
   width="264.58334mm"
   height="264.5834mm"
   viewBox="0 0 264.58334 264.5834"
   version="1.1"
   id="svg1"
   xml:space="preserve"
   sodipodi:docname="arrukolabslogo-dark-mode.svg"
   inkscape:version="1.4.3 (fcd0343856, 2026-01-01)"
   xmlns:inkscape="http://www.inkscape.org/namespaces/inkscape"
   xmlns:sodipodi="http://sodipodi.sourceforge.net/DTD/sodipodi-0.dtd"
   xmlns="http://www.w3.org/2000/svg"
   xmlns:svg="http://www.w3.org/2000/svg"><sodipodi:namedview
     id="namedview1"
     pagecolor="#ffffff"
     bordercolor="#000000"
     borderopacity="0.25"
     inkscape:showpageshadow="2"
     inkscape:pageopacity="0.0"
     inkscape:pagecheckerboard="0"
     inkscape:deskcolor="#d1d1d1"
     inkscape:document-units="mm"
     inkscape:zoom="0.45249988"
     inkscape:cx="47.513825"
     inkscape:cy="763.53611"
     inkscape:window-width="1854"
     inkscape:window-height="1019"
     inkscape:window-x="0"
     inkscape:window-y="0"
     inkscape:window-maximized="1"
     inkscape:current-layer="svg1" /><defs
     id="defs1" /><g
     id="layer1"
     transform="matrix(0.94000001,0,0,0.93999983,121.3913,-281.5695)"
     style="fill:#f8fafc;fill-opacity:1"
     inkscape:export-filename="arrukolabslogo1024px.png"
     inkscape:export-xdpi="96"
     inkscape:export-ydpi="96"><path
       style="fill:#f8fafc;fill-opacity:1;stroke-width:2.34698"
       d="M 0.89941557,570.027 C -30.849713,566.49877 -59.378956,551.93728 -82.055073,527.68662 c -15.66938,-16.75744 -25.471897,-35.42729 -34.971567,-66.60684 -1.53035,-5.02287 -2.78247,-9.62449 -2.78247,-10.22583 0,-2.38087 5.11866,-28.63057 7.32581,-37.56845 4.77463,-19.33503 9.74763,-32.86805 14.44463,-39.30834 11.301776,-15.49641 32.351373,-38.8221 41.626489,-46.12758 5.931568,-4.67195 20.931615,-12.2718 30.182653,-15.29218 12.010993,-3.92149 24.3246806,-6.47589 31.2440132,-6.48139 l 3.2005994,-0.002 V 438.27055 570.46712 L 5.6241166,570.366 C 4.1990934,570.3099 2.0729641,570.15762 0.89941557,570.02726 Z M -1.5391331,558.50141 c 0,-0.31888 -0.2404609,-0.67468 -0.5343549,-0.79065 -0.547765,-0.21611 -35.617677,-49.20656 -38.824452,-54.23529 -1.713848,-2.68761 -2.886475,-3.36054 -31.832146,-18.26774 -16.52902,-8.51253 -30.180794,-15.34446 -30.337314,-15.18207 -0.43715,0.45355 1.68004,6.40724 5.014813,14.10201 9.661753,22.29394 24.465012,40.38819 44.3893,54.25779 12.150854,8.45838 25.135671,14.32447 39.970858,18.05748 10.6687105,2.68455 12.1532959,2.93602 12.1532959,2.05847 z m -0.7564056,-78.25492 c -0.6425116,-0.64903 -15.3545643,-10.43005 -43.9858573,-29.24319 -2.981314,-1.95895 -7.782213,-5.15916 -10.668688,-7.11159 -2.886475,-1.95239 -5.323849,-3.48677 -5.416383,-3.4097 -0.09263,0.077 5.784056,12.97067 13.059079,28.65248 13.004702,28.03241 13.341039,28.67078 19.981524,37.92446 3.714793,5.17666 11.417904,15.92003 17.118043,23.87416 l 10.3638492,14.46204 0.1580645,-32.18658 c 0.1237327,-25.2181 -0.00922,-32.35448 -0.6096314,-32.96208 z m -50.6897293,-0.59328 c -3.457351,-7.84302 -7.648158,-16.94109 -17.095486,-37.11368 -1.588502,-3.39189 -3.085069,-6.16707 -3.325715,-6.16707 -0.240622,0 -3.029641,1.59199 -6.197775,3.53777 -3.168157,1.94575 -8.915162,5.39575 -12.77113,7.66666 -16.335646,9.62063 -15.720436,9.17108 -14.740696,10.77179 0.47572,0.77719 57.500687,30.64528 57.83889,30.29438 0.09608,-0.0997 -1.572466,-4.1452 -3.708088,-8.98985 z m 51.9011119,-78.38683 c 0.0870968,-40.49164 -0.07788,-69.89214 -0.3920046,-69.89214 -0.2982028,0 -0.7129034,0.46163 -0.92159,1.02584 -0.3628572,0.98109 -7.1818442,11.36095 -26.5515703,40.41686 -4.874839,7.31259 -10.509379,15.78137 -12.521176,18.81955 -2.011821,3.03815 -6.126867,9.21908 -9.144587,13.73533 -3.017719,4.51625 -7.718848,11.56842 -10.446959,15.67148 l -4.960208,7.46011 12.885508,8.49422 c 28.492953,18.78273 45.3504202,29.95154 48.2445911,31.96416 1.6764979,1.16586 3.185346,2.13707 3.3530188,2.15823 0.167742,0.0215 0.3723733,-31.41297 0.454977,-69.85364 z m -90.3767479,36.54325 c 5.700116,-3.47611 10.912536,-6.63989 11.583135,-7.03061 3.821844,-2.22672 3.959056,-1.28958 -2.297742,-15.69448 -3.149655,-7.2514 -7.073826,-16.37039 -8.72037,-20.26446 -1.807604,-4.27491 -3.165553,-6.76147 -3.42742,-6.27601 -0.238502,0.44222 -1.833249,5.05139 -3.543894,10.24265 -4.606635,13.97971 -8.137165,28.91738 -11.395115,48.21271 l -0.35256,2.08797 3.89507,-2.47876 c 2.14228,-1.36333 8.55878,-5.32287 14.258896,-8.79901 z m 41.050106,-46.83181 c 10.506707,-15.90951 20.931546,-31.71357 23.166293,-35.12014 2.234747,-3.40657 6.733066,-10.17127 9.996269,-15.03268 3.263203,-4.8614 6.452719,-9.617 7.087835,-10.56802 0.6350919,-0.95099 2.8347004,-4.19277 4.8879956,-7.20395 2.0532951,-3.01116 3.7332723,-5.64945 3.7332723,-5.86284 0,-0.44031 -0.6652766,-0.29969 -10.3638719,2.1906 -15.467145,3.9715 -31.464036,11.21719 -39.464014,17.87496 -7.286499,6.06404 -20.703689,20.3129 -29.467524,31.29412 -6.55772,8.21691 -7.8756,10.20713 -7.576891,11.44219 0.338318,1.39897 10.143688,24.87481 15.324505,36.68969 1.887834,4.3052 2.438203,5.10039 2.947189,4.25815 0.344216,-0.56961 9.222236,-14.05254 19.728942,-29.96208 z m 68.321345,168.98936 c -0.03226,-5.8795 -0.03779,-48.97324 -0.01152,-95.76386 0.02558,-46.79062 0.05207,-101.51146 0.05876,-121.60187 l 0.01152,-36.528 3.2006,0.012 c 4.648434,0.0191 14.992536,1.55114 22.709058,3.36591 23.593943,5.54885 44.492885,17.22065 61.181825,34.16929 25.76797,26.16895 39.71343,60.10379 39.71343,96.63851 0,34.42414 -12.96333,66.58031 -36.83278,91.36552 -10.923345,11.34241 -21.438185,19.07713 -34.799799,25.59871 -16.368619,7.98927 -31.479266,12.0235 -48.923531,13.06158 l -6.248803,0.37186 z M 39.611494,489.7268 c 36.10641,-5.79138 68.437146,-27.25027 79.925786,-53.04918 9.61759,-21.59723 6.55772,-46.41548 -8.61585,-69.88231 -13.935252,-21.55169 -38.137743,-38.70361 -65.178323,-46.19085 -6.934701,-1.92015 -17.958181,-3.89154 -18.787882,-3.35993 -0.536728,0.34389 -0.604677,173.1543 -0.0682,173.71081 0.445392,0.46209 4.813803,0.0404 12.724564,-1.22854 z"
       id="path1" /></g></svg>
