<svg width="96" height="96" viewBox="0 0 96 96" fill="none" xmlns="http://www.w3.org/2000/svg">
  <title>Atención al cliente manual</title>
  <g stroke="#0B1020" stroke-width="2.5" stroke-linecap="round" stroke-linejoin="round">
    <path d="M18 24H42C45.314 24 48 26.686 48 30V42C48 45.314 45.314 48 42 48H31L22 56V48H18C14.686 48 12 45.314 12 42V30C12 26.686 14.686 24 18 24Z"/>
    <circle cx="64" cy="36" r="8"/>
    <path d="M54 62C55.758 55.952 61.34 52 68 52C74.66 52 80.242 55.952 82 62"/>
    <path d="M48 36H54" opacity="0.7"/>
    <path d="M32 36H36"/>
    <path d="M24 36H28"/>
  </g>
</svg>
